<svg width="125" height="125" viewBox="0 0 125 125" fill="none" xmlns="http://www.w3.org/2000/svg">
<g clip-path="url(#clip0)">
<path fill-rule="evenodd" clip-rule="evenodd" d="M88.9853 31.2386C81.6631 21.4065 69.9491 15.0382 56.7477 15.0382C34.5629 15.0382 16.5786 33.0225 16.5786 55.2073C16.5786 65.103 20.1569 74.163 26.0902 81.1639C26.6266 81.2673 27.4165 81.3967 28.432 81.5009C30.545 81.7177 33.6315 81.825 37.443 81.3643C45.0488 80.445 55.6049 77.2572 67.1303 68.0543C78.6556 58.8515 84.1006 49.2627 86.6804 42.0489C87.9733 38.4339 88.5517 35.4001 88.8079 33.2916C88.9098 32.4532 88.9607 31.7616 88.9853 31.2386ZM92.3365 36.5617C95.2618 42.1338 96.9169 48.4773 96.9169 55.2073C96.9169 77.3921 78.9325 95.3765 56.7477 95.3765C46.7362 95.3765 37.58 91.7139 30.5461 85.6555C32.5936 85.7337 35.0806 85.679 37.923 85.3354C46.2215 84.3324 57.4861 80.8737 69.6262 71.1801C81.7662 61.4865 87.6321 51.2666 90.4468 43.3959C91.3652 40.8278 91.9567 38.5161 92.3365 36.5617Z" fill="url(#paint0_linear)"/>
<path d="M107.474 59.6951C108.616 47.7901 105.485 35.9154 98.72 26.1618L94.9774 29.9301L92.3047 26.6903L99.4222 20.1378C100.317 21.2228 101.167 22.338 101.97 23.4805C109.437 34.1007 112.903 47.0816 111.655 60.0961C110.272 74.5107 103.22 87.7856 92.0496 97.0006C80.8793 106.216 66.5059 110.616 52.0913 109.233C39.0768 107.985 26.9914 102.115 17.9842 92.765C17.0152 91.7591 16.0819 90.713 15.1868 89.628L21.785 83.8041L24.4578 87.0439L21.2345 90.0837C29.5244 98.579 40.5873 103.91 52.4923 105.052C65.7981 106.329 79.0659 102.267 89.3769 93.7608C99.688 85.2547 106.198 73.0009 107.474 59.6951Z" fill="url(#paint1_linear)"/>
</g>
<defs>
<linearGradient id="paint0_linear" x1="56.7477" y1="15.0382" x2="41.6843" y2="95.3765" gradientUnits="userSpaceOnUse">
<stop stop-color="#62C3A6"/>
<stop offset="1" stop-color="#00527E"/>
</linearGradient>
<linearGradient id="paint1_linear" x1="144.214" y1="-44.9218" x2="24.6345" y2="97.8243" gradientUnits="userSpaceOnUse">
<stop stop-color="#62C3A6"/>
<stop offset="1" stop-color="#00527E"/>
</linearGradient>
<clipPath id="clip0">
<rect width="125" height="125" fill="white"/>
</clipPath>
</defs>
</svg>
